<svg xmlns="http://www.w3.org/2000/svg" viewBox="0 0 235.7 193.6"><path fill="#7d9eec" d="M0 0h131.7l-24.9 55.7-10.6 52.8 37.4 3.8 5.8 81.3H0V0z"/><path fill="#cad3f4" d="M131.4 0h104.3v193.6h-97l-3.8-83.3-39.2.7 8.9-55.5L131.4 0z"/><path fill="#181a1e" d="M136.6 157.6l-.2-11.4c22.9-.5 41.8-5.6 57.8-15.7l5.5 9.8c-17.6 11.1-38.3 16.7-63.1 17.3z"/><path fill="#0e33a1" d="M114.6 158.5c-30 0-55.3-6-78.4-18.6l5-10.2c25.5 13.9 53.9 19.2 89.4 16.8l.7 11.4c-5.8.4-11.3.6-16.7.6z"/><path fill="#0d36a8" d="M59 32.1h10.8v29.2H59z"/><path fill="#181920" d="M159.3 32.1h10.8v29.2h-10.8z"/><path fill="#181a1e" d="M144.4 112l2.1-7.4h-44.4c3.6-44.5 22.7-89.5 55.5-130.5l-8.3-7.4C113.4 11.5 93.2 61 90.8 110l-.3 6H132c-8.2 35.9-3.3 76.1 13.8 111.6l9.8-5.2c-16.8-34.8-21-76.1-11.2-110.4z"/></svg>